<svg width="72" height="80" viewBox="0 0 72 80" fill="none" xmlns="http://www.w3.org/2000/svg">
<g clip-path="url(#clip0_248_310)" filter="url(#filter0_d_248_310)">
<path d="M50.7342 13.8438C50.7784 11.5917 49.9459 9.41052 48.4125 7.76051C46.8791 6.11051 44.7647 5.12072 42.5155 5C41.0181 4.99884 39.5545 5.44499 38.3123 6.28125C36.7394 5.44335 34.9852 5.00345 33.203 5C30.6772 5.08212 28.2412 5.95601 26.2393 7.49814C24.2373 9.04027 22.7707 11.1726 22.0467 13.5938C20.1565 14.1598 18.5071 15.3362 17.3565 16.9392C16.2059 18.5421 15.6189 20.4812 15.6873 22.4531C15.5795 24.7484 16.3826 26.9933 17.9219 28.6994C19.4611 30.4054 21.6119 31.4344 23.9061 31.5625H28.6405L23.078 41.6719C23.0286 41.7575 23.0017 41.8543 22.9998 41.9531C22.987 41.9881 22.9817 42.0254 22.9842 42.0625L22.3436 48.4688V48.5313L21.8123 53.8281C21.7972 53.9795 21.8278 54.1318 21.9002 54.2656C21.9726 54.3993 22.0836 54.5082 22.2186 54.5781C22.3534 54.649 22.5053 54.6807 22.6572 54.6696C22.8091 54.6586 22.9548 54.6052 23.078 54.5156L27.2967 51.2188L32.3592 47.25C32.4902 47.1893 32.5954 47.0841 32.6561 46.9531L41.1405 31.5625H48.0936C50.3878 31.4344 52.5386 30.4054 54.0778 28.6994C55.617 26.9933 56.4201 24.7484 56.3123 22.4531C56.3597 20.6228 55.8523 18.821 54.8568 17.2845C53.8612 15.7479 52.4241 14.5484 50.7342 13.8438ZM30.4373 31.5625H33.9998L27.5623 43.25L24.828 41.75L30.4373 31.5625ZM23.5467 52.1563L23.8123 49.4313C24.521 49.6073 25.1709 49.9667 25.6967 50.4734L23.5467 52.1563ZM26.9373 49.5L26.9217 49.5125C26.1244 48.6833 25.095 48.1147 23.9686 47.8813V47.8594L24.4217 43.2969L27.453 44.9844C27.4686 44.9844 27.4686 45 27.4842 45C27.4998 45 27.4998 45.0156 27.5155 45.0156L30.5467 46.6875L26.9373 49.5ZM31.6717 45.5156H31.6561L28.9373 44L35.7811 31.5625H39.3436L31.6717 45.5156ZM48.0936 30H23.9061C22.0265 29.8718 20.2732 29.0074 19.027 27.5945C17.7808 26.1815 17.1422 24.3341 17.2498 22.4531C17.1756 20.7836 17.6744 19.1389 18.6634 17.7917C19.6524 16.4446 21.0722 15.4761 22.6873 15.0469H22.7186C24.3333 15.1691 25.8356 15.9203 26.9021 17.1388C27.9687 18.3573 28.5144 19.9458 28.4217 21.5625C28.4217 21.7697 28.504 21.9684 28.6505 22.1149C28.7971 22.2614 28.9958 22.3438 29.203 22.3438C29.4102 22.3438 29.6089 22.2614 29.7554 22.1149C29.9019 21.9684 29.9842 21.7697 29.9842 21.5625C30.0527 19.7056 29.4609 17.8845 28.3138 16.4228C27.1666 14.961 25.5385 13.9531 23.7186 13.5781C24.4041 11.5865 25.6776 9.84963 27.371 8.59703C29.0644 7.34443 31.0979 6.63502 33.203 6.5625C34.845 6.56208 36.4575 6.99892 37.8748 7.82813C37.8905 7.84375 37.9061 7.84375 37.9217 7.85938C38.6725 8.3838 39.3079 9.05637 39.7889 9.83566C40.2699 10.6149 40.5863 11.4844 40.7186 12.3906C40.7342 12.4688 40.7342 12.5313 40.7498 12.6094C40.7725 12.7973 40.8627 12.9705 41.0035 13.097C41.1443 13.2234 41.3262 13.2945 41.5155 13.2969H41.6092C41.8151 13.2692 42.0021 13.1623 42.1305 12.9989C42.2589 12.8355 42.3185 12.6285 42.2967 12.4219C42.2991 12.3999 42.2935 12.3777 42.2811 12.3594C42.0555 10.4098 41.1346 8.60685 39.6873 7.28125C40.5563 6.8121 41.5279 6.56519 42.5155 6.5625C44.3209 6.67901 46.0133 7.48216 47.2453 8.80712C48.4773 10.1321 49.1554 11.8783 49.1405 13.6875C48.2392 13.7859 47.3702 14.0791 46.5936 14.5469C46.1042 14.8143 45.6523 15.1453 45.2498 15.5313C44.5909 16.1536 44.0415 16.8826 43.6248 17.6875C43.5764 17.7783 43.5468 17.8781 43.5379 17.9806C43.529 18.0832 43.541 18.1865 43.5731 18.2844C43.6052 18.3822 43.6568 18.4725 43.7248 18.5498C43.7928 18.6272 43.8757 18.69 43.9686 18.7344C44.0734 18.7942 44.1917 18.8265 44.3123 18.8281C44.4571 18.8299 44.5995 18.7913 44.7237 18.7169C44.8479 18.6424 44.9489 18.5348 45.0155 18.4063C45.358 17.7315 45.8245 17.1273 46.3905 16.625C46.7708 16.2588 47.209 15.9579 47.6873 15.7344C48.3424 15.4033 49.0629 15.2218 49.7967 15.2031C49.8123 15.1875 49.8123 15.1875 49.828 15.2031C51.3137 15.7297 52.5924 16.7169 53.4777 18.0211C54.3631 19.3252 54.8088 20.878 54.7498 22.4531C54.8575 24.3341 54.2189 26.1815 52.9727 27.5945C51.7265 29.0074 49.9732 29.8718 48.0936 30ZM47.2342 21.5C47.2797 21.3712 47.2907 21.2328 47.266 21.0984C47.2414 20.9641 47.1819 20.8386 47.0936 20.7344C47.0063 20.6222 46.8861 20.5403 46.7498 20.5C46.5508 20.4379 46.3355 20.4553 46.1491 20.5485C45.9626 20.6417 45.8196 20.8036 45.7498 21C45.4526 21.8899 45.3358 22.8301 45.4061 23.7656C45.4061 23.7698 45.4044 23.7737 45.4015 23.7767C45.3986 23.7796 45.3946 23.7813 45.3905 23.7813C45.3748 23.8125 45.3748 23.8281 45.3592 23.8438L45.4061 23.8125C45.4525 24.7312 45.7034 25.6281 46.1405 26.4375C46.2058 26.5637 46.3044 26.6697 46.4256 26.744C46.5467 26.8184 46.6858 26.8583 46.828 26.8594C46.9539 26.8599 47.0777 26.8276 47.1873 26.7656C47.2786 26.7195 47.3597 26.6555 47.4258 26.5775C47.4919 26.4995 47.5417 26.409 47.5723 26.3114C47.6029 26.2139 47.6136 26.1111 47.6039 26.0093C47.5941 25.9075 47.564 25.8087 47.5155 25.7188C47.1874 25.0706 46.9934 24.3629 46.945 23.638C46.8967 22.9132 46.9951 22.186 47.2342 21.5ZM26.953 24.7188C26.2608 24.9396 25.5306 25.0161 24.8077 24.9435C24.0847 24.871 23.3843 24.6509 22.7498 24.2969C22.6596 24.2474 22.5605 24.2162 22.4582 24.2051C22.3559 24.194 22.2524 24.2033 22.1536 24.2323C22.0549 24.2614 21.9629 24.3096 21.8829 24.3743C21.8029 24.439 21.7364 24.5189 21.6873 24.6094C21.6384 24.7005 21.6081 24.8005 21.5982 24.9035C21.5882 25.0064 21.5988 25.1104 21.6293 25.2092C21.6599 25.3081 21.7097 25.3999 21.776 25.4793C21.8423 25.5587 21.9237 25.6242 22.0155 25.6719C23.046 26.2343 24.2009 26.5297 25.3748 26.5313C26.0754 26.5316 26.7715 26.4209 27.4373 26.2031C27.5356 26.1725 27.6267 26.1226 27.7054 26.0561C27.784 25.9897 27.8485 25.9083 27.8951 25.8165C27.9417 25.7247 27.9695 25.6246 27.9767 25.5219C27.984 25.4192 27.9706 25.3162 27.9373 25.2188C27.873 25.022 27.7332 24.8588 27.5486 24.7651C27.364 24.6713 27.1498 24.6547 26.953 24.7188ZM40.3748 23.2188C40.0028 22.844 39.5886 22.5137 39.1405 22.2344C38.6776 21.9352 38.1855 21.6839 37.6717 21.4844C37.1982 21.2965 36.7057 21.1603 36.203 21.0781C35.926 21.0161 35.643 20.9847 35.3592 20.9844C35.2436 20.9215 35.1137 20.8899 34.9821 20.8926C34.8506 20.8954 34.7221 20.9324 34.6092 21H34.5936C34.5534 20.9843 34.5088 20.9843 34.4686 21C33.5966 21.0645 32.7464 21.3036 31.9686 21.7031C31.7996 21.8048 31.6753 21.9667 31.6207 22.1563C31.5661 22.3458 31.5852 22.549 31.6742 22.7251C31.7632 22.9011 31.9155 23.0369 32.1005 23.1053C32.2856 23.1737 32.4896 23.1696 32.6717 23.0938C32.9298 22.9551 33.2022 22.8451 33.4842 22.7656H33.4998C34.111 22.576 34.7521 22.5018 35.3905 22.5469C35.9804 22.5854 36.5605 22.7173 37.1092 22.9375C37.5609 23.1111 37.9908 23.3366 38.3905 23.6094C38.8299 23.9057 39.2336 24.2517 39.5936 24.6406C40.0487 25.1315 40.4326 25.6837 40.7342 26.2813C40.7986 26.4127 40.8987 26.5235 41.023 26.6008C41.1474 26.6782 41.2909 26.719 41.4373 26.7188C41.5627 26.7154 41.6857 26.6833 41.7967 26.625C41.8875 26.5784 41.9681 26.5141 42.0339 26.4361C42.0997 26.358 42.1492 26.2676 42.1798 26.1702C42.2103 26.0728 42.2212 25.9703 42.2117 25.8687C42.2023 25.767 42.1728 25.6683 42.1248 25.5781C41.6868 24.6937 41.0941 23.8946 40.3748 23.2188ZM35.3748 11.6875C35.5326 11.5795 35.6453 11.4174 35.6916 11.2319C35.7378 11.0464 35.7145 10.8503 35.6259 10.6809C35.5373 10.5115 35.3897 10.3804 35.211 10.3125C35.0322 10.2446 34.8348 10.2446 34.6561 10.3125C34.0079 10.6407 33.3003 10.8347 32.5754 10.8831C31.8505 10.9314 31.1233 10.833 30.4373 10.5938C30.3399 10.5593 30.2366 10.5445 30.1334 10.5502C30.0302 10.556 29.9292 10.5821 29.8362 10.6272C29.7432 10.6722 29.6601 10.7353 29.5916 10.8127C29.5231 10.8901 29.4707 10.9803 29.4373 11.0781C29.3768 11.2771 29.395 11.4918 29.488 11.6778C29.581 11.8638 29.7418 12.0071 29.9373 12.0781C30.6836 12.3242 31.4641 12.4508 32.2498 12.4531C33.3387 12.4595 34.4122 12.1965 35.3748 11.6875Z" fill="white"/>
</g>
<defs>
<filter id="filter0_d_248_310" x="-4" y="0" width="80" height="80" filterUnits="userSpaceOnUse" color-interpolation-filters="sRGB">
<feFlood flood-opacity="0" result="BackgroundImageFix"/>
<feColorMatrix in="SourceAlpha" type="matrix" values="0 0 0 0 0 0 0 0 0 0 0 0 0 0 0 0 0 0 127 0" result="hardAlpha"/>
<feOffset dy="10"/>
<feGaussianBlur stdDeviation="7.5"/>
<feComposite in2="hardAlpha" operator="out"/>
<feColorMatrix type="matrix" values="0 0 0 0 0 0 0 0 0 0 0 0 0 0 0 0 0 0 0.25 0"/>
<feBlend mode="normal" in2="BackgroundImageFix" result="effect1_dropShadow_248_310"/>
<feBlend mode="normal" in="SourceGraphic" in2="effect1_dropShadow_248_310" result="shape"/>
</filter>
<clipPath id="clip0_248_310">
<rect width="50" height="50" fill="white" transform="translate(11 5)"/>
</clipPath>
</defs>
</svg>
