<svg width="78" height="80" viewBox="0 0 78 80" fill="none" xmlns="http://www.w3.org/2000/svg">
<g filter="url(#filter0_d_248_305)">
<path d="M59.7736 5H18.2275C16.6877 5 15.4346 6.25234 15.4346 7.79219V49.3391C15.4346 50.8789 16.6877 52.1297 18.2268 52.1297H19.5791V54.243C19.5791 54.6609 19.9182 55 20.3369 55H26.933C27.3518 55 27.6908 54.6609 27.6908 54.243V52.1297H50.308V54.243C50.308 54.6609 50.6471 55 51.0658 55H57.6619C58.0799 55 58.4189 54.6609 58.4189 54.243V52.1297H59.7721C61.3119 52.1297 62.5643 50.8781 62.5643 49.3391V7.79219C62.5658 6.25234 61.3135 5 59.7736 5ZM18.2275 6.51406H59.7736C60.4768 6.51406 61.051 7.0875 61.051 7.79219V15.3617H16.9502V7.79219C16.9502 7.08828 17.5229 6.51406 18.2275 6.51406ZM26.176 53.4852H21.0955V52.1305H26.1768V53.4852H26.176ZM56.9049 53.4852H51.8236V52.1305H56.9049V53.4852ZM59.7736 50.6148H18.2275C17.5236 50.6148 16.9502 50.043 16.9502 49.3391V16.8773H61.051V49.3391C61.051 50.0422 60.4768 50.6148 59.7736 50.6148Z" fill="white"/>
<path d="M51.0662 13.9858C52.7459 13.9858 54.1131 12.6187 54.1131 10.939C54.1131 9.25928 52.7459 7.89209 51.0662 7.89209C49.3857 7.89209 48.0186 9.25928 48.0186 10.939C48.0186 12.6187 49.3857 13.9858 51.0662 13.9858ZM51.0662 9.40693C51.91 9.40693 52.5982 10.0944 52.5982 10.939C52.5982 11.7835 51.91 12.471 51.0662 12.471C50.2209 12.471 49.5342 11.7835 49.5342 10.939C49.5342 10.0944 50.2217 9.40693 51.0662 9.40693ZM38.9998 13.9858C40.6795 13.9858 42.0459 12.6187 42.0459 10.939C42.0459 9.25928 40.6795 7.89209 38.9998 7.89209C37.3201 7.89209 35.9529 9.25928 35.9529 10.939C35.9529 12.6187 37.3201 13.9858 38.9998 13.9858ZM38.9998 9.40693C39.8436 9.40693 40.5311 10.0944 40.5311 10.939C40.5311 11.7835 39.8443 12.471 38.9998 12.471C38.1553 12.471 37.4678 11.7835 37.4678 10.939C37.4678 10.0944 38.1553 9.40693 38.9998 9.40693ZM26.9334 13.9858C28.6139 13.9858 29.9795 12.6187 29.9795 10.939C29.9795 9.25928 28.6139 7.89209 26.9334 7.89209C25.2537 7.89209 23.8865 9.25928 23.8865 10.939C23.8865 12.6187 25.2537 13.9858 26.9334 13.9858ZM26.9334 9.40693C27.7779 9.40693 28.4654 10.0944 28.4654 10.939C28.4654 11.7835 27.7779 12.471 26.9334 12.471C26.0889 12.471 25.4014 11.7835 25.4014 10.939C25.4014 10.0944 26.0889 9.40693 26.9334 9.40693ZM55.5498 26.4491H22.4521C22.0334 26.4491 21.6943 26.789 21.6943 27.2069V45.6491C21.6943 46.0679 22.0334 46.4069 22.4521 46.4069H55.5498C55.9693 46.4069 56.3084 46.0679 56.3084 45.6491V27.2069C56.3076 26.789 55.9693 26.4491 55.5498 26.4491ZM54.7928 44.8921H23.21V27.9647H54.7928V44.8921Z" fill="white"/>
</g>
<defs>
<filter id="filter0_d_248_305" x="-1" y="0" width="80" height="80" filterUnits="userSpaceOnUse" color-interpolation-filters="sRGB">
<feFlood flood-opacity="0" result="BackgroundImageFix"/>
<feColorMatrix in="SourceAlpha" type="matrix" values="0 0 0 0 0 0 0 0 0 0 0 0 0 0 0 0 0 0 127 0" result="hardAlpha"/>
<feOffset dy="10"/>
<feGaussianBlur stdDeviation="7.5"/>
<feComposite in2="hardAlpha" operator="out"/>
<feColorMatrix type="matrix" values="0 0 0 0 0 0 0 0 0 0 0 0 0 0 0 0 0 0 0.25 0"/>
<feBlend mode="normal" in2="BackgroundImageFix" result="effect1_dropShadow_248_305"/>
<feBlend mode="normal" in="SourceGraphic" in2="effect1_dropShadow_248_305" result="shape"/>
</filter>
</defs>
</svg>
