<svg width="76" height="76" viewBox="0 0 76 76" fill="none" xmlns="http://www.w3.org/2000/svg">
<g filter="url(#filter0_d_248_301)">
<path d="M60.4802 49.295L54.4802 20.295C54.3852 19.835 53.9752 19.5 53.5002 19.5H22.5002C22.0252 19.5 21.6152 19.835 21.5202 20.295L15.5202 49.295C15.4602 49.59 15.5352 49.895 15.7252 50.13C15.9152 50.365 16.2002 50.5 16.5002 50.5H59.5002C59.8002 50.5 60.0852 50.365 60.2752 50.13C60.4652 49.9 60.5402 49.59 60.4802 49.295ZM55.2702 34C55.2602 34 55.2552 34 55.2502 34H39.0002V21.5H52.6852L55.2702 34ZM23.3152 21.5H37.0002V34H20.7502C20.7402 34 20.7352 34 20.7302 34L23.3152 21.5ZM20.3352 35.905C20.4602 35.965 20.6002 36 20.7502 36H37.0002V48.5H17.7302L20.3352 35.905ZM39.0002 48.5V36H55.2502C55.4002 36 55.5402 35.965 55.6652 35.905L58.2702 48.5H39.0002ZM41.5002 11C42.8802 11 44.0002 12.12 44.0002 13.5C44.0002 14.05 44.4502 14.5 45.0002 14.5C45.5502 14.5 46.0002 14.05 46.0002 13.5C46.0002 12.12 47.1202 11 48.5002 11C49.0502 11 49.5002 10.55 49.5002 10C49.5002 9.45 49.0502 9 48.5002 9C47.1202 9 46.0002 7.88 46.0002 6.5C46.0002 5.95 45.5502 5.5 45.0002 5.5C44.4502 5.5 44.0002 5.95 44.0002 6.5C44.0002 7.88 42.8802 9 41.5002 9C40.9502 9 40.5002 9.45 40.5002 10C40.5002 10.55 40.9502 11 41.5002 11ZM45.0002 9.32C45.2002 9.57 45.4302 9.795 45.6802 10C45.4302 10.2 45.2052 10.43 45.0002 10.68C44.8002 10.43 44.5702 10.205 44.3202 10C44.5702 9.8 44.8002 9.57 45.0002 9.32ZM27.5002 13C28.8802 13 30.0002 14.12 30.0002 15.5C30.0002 16.05 30.4502 16.5 31.0002 16.5C31.5502 16.5 32.0002 16.05 32.0002 15.5C32.0002 14.12 33.1202 13 34.5002 13C35.0502 13 35.5002 12.55 35.5002 12C35.5002 11.45 35.0502 11 34.5002 11C33.1202 11 32.0002 9.88 32.0002 8.5C32.0002 7.95 31.5502 7.5 31.0002 7.5C30.4502 7.5 30.0002 7.95 30.0002 8.5C30.0002 9.88 28.8802 11 27.5002 11C26.9502 11 26.5002 11.45 26.5002 12C26.5002 12.55 26.9502 13 27.5002 13ZM31.0002 11.32C31.2002 11.57 31.4302 11.795 31.6802 12C31.4302 12.2 31.2052 12.43 31.0002 12.68C30.8002 12.43 30.5702 12.205 30.3202 12C30.5702 11.8 30.8002 11.57 31.0002 11.32Z" fill="white"/>
</g>
<defs>
<filter id="filter0_d_248_301" x="-2" y="-2" width="80" height="80" filterUnits="userSpaceOnUse" color-interpolation-filters="sRGB">
<feFlood flood-opacity="0" result="BackgroundImageFix"/>
<feColorMatrix in="SourceAlpha" type="matrix" values="0 0 0 0 0 0 0 0 0 0 0 0 0 0 0 0 0 0 127 0" result="hardAlpha"/>
<feOffset dy="10"/>
<feGaussianBlur stdDeviation="7.5"/>
<feComposite in2="hardAlpha" operator="out"/>
<feColorMatrix type="matrix" values="0 0 0 0 0 0 0 0 0 0 0 0 0 0 0 0 0 0 0.25 0"/>
<feBlend mode="normal" in2="BackgroundImageFix" result="effect1_dropShadow_248_301"/>
<feBlend mode="normal" in="SourceGraphic" in2="effect1_dropShadow_248_301" result="shape"/>
</filter>
</defs>
</svg>
