<svg width="62" height="80" viewBox="0 0 62 80" fill="none" xmlns="http://www.w3.org/2000/svg">
<g clip-path="url(#clip0_248_296)" filter="url(#filter0_d_248_296)">
<path d="M45.9322 39.0849C46.1236 39.0849 46.3071 39.0048 46.4424 38.8623C46.5777 38.7198 46.6537 38.5265 46.6537 38.3249C46.6537 28.4546 40.752 21.9893 31.5507 21.67V5.76003C31.5507 5.55846 31.4747 5.36514 31.3394 5.22261C31.2041 5.08007 31.0206 5 30.8293 5C30.6379 5 30.4544 5.08007 30.3191 5.22261C30.1838 5.36514 30.1078 5.55846 30.1078 5.76003V21.67C20.9017 21.9893 15 28.4546 15 38.3249C15 38.5265 15.076 38.7198 15.2113 38.8623C15.3466 39.0048 15.5301 39.0849 15.7215 39.0849H25.1248C25.3339 40.5327 26.0193 41.857 27.061 42.8267C28.1028 43.7963 29.4348 44.3496 30.8244 44.3899C32.2149 44.3508 33.5481 43.798 34.5908 42.8283C35.6336 41.8585 36.3196 40.5335 36.5289 39.0849H45.9322ZM30.8244 23.1749C37.616 23.1749 44.8644 26.9751 45.1963 37.5649H16.443C16.7845 26.9751 24.0329 23.1749 30.8244 23.1749ZM30.8244 42.8699C29.818 42.8292 28.8536 42.4342 28.0854 41.7481C27.3172 41.0619 26.7896 40.1242 26.587 39.0849H35.0667C34.8639 40.125 34.3356 41.0634 33.5664 41.7496C32.7973 42.4359 31.8317 42.8303 30.8244 42.8699ZM46.7162 48.332L42.2382 44.7345C42.0858 44.6122 41.8935 44.5587 41.7036 44.5858C41.5137 44.6129 41.3418 44.7183 41.2258 44.8789C41.1097 45.0395 41.0589 45.2421 41.0846 45.4421C41.1103 45.6421 41.2104 45.8232 41.3628 45.9455L45.8408 49.543C45.9933 49.6653 46.1856 49.7187 46.3755 49.6917C46.4695 49.6783 46.5601 49.6455 46.642 49.5952C46.724 49.5449 46.7958 49.4781 46.8533 49.3986C46.9108 49.319 46.9528 49.2284 46.977 49.1318C47.0013 49.0351 47.0072 48.9344 46.9945 48.8354C46.9817 48.7363 46.9506 48.6409 46.9029 48.5545C46.8551 48.4682 46.7917 48.3925 46.7162 48.332ZM20.5842 44.6737L16.2313 48.4333C16.1429 48.4902 16.0671 48.5665 16.0092 48.6571C15.9512 48.7476 15.9125 48.8502 15.8956 48.9579C15.8787 49.0657 15.884 49.176 15.9112 49.2813C15.9384 49.3867 15.9868 49.4846 16.0531 49.5685C16.1195 49.6524 16.2022 49.7202 16.2957 49.7674C16.3892 49.8145 16.4912 49.84 16.5948 49.8419C16.6984 49.8438 16.8012 49.8221 16.8962 49.7784C16.9912 49.7347 17.0761 49.67 17.1452 49.5886L21.5029 45.834C21.5793 45.7719 21.6432 45.6943 21.6906 45.6057C21.738 45.5172 21.7681 45.4195 21.779 45.3185C21.79 45.2175 21.7816 45.1152 21.7543 45.0177C21.7271 44.9201 21.6815 44.8294 21.6204 44.7507C21.5592 44.672 21.4837 44.6071 21.3983 44.5597C21.3129 44.5124 21.2194 44.4835 21.1232 44.4749C21.0271 44.4664 20.9302 44.4782 20.8385 44.5097C20.7467 44.5412 20.6619 44.5918 20.5891 44.6585L20.5842 44.6737ZM31.0361 48.1749C30.8447 48.1749 30.6612 48.255 30.5259 48.3975C30.3906 48.5401 30.3146 48.7334 30.3146 48.9349V54.24C30.3146 54.4415 30.3906 54.6349 30.5259 54.7774C30.6612 54.9199 30.8447 55 31.0361 55C31.2274 55 31.4109 54.9199 31.5462 54.7774C31.6815 54.6349 31.7576 54.4415 31.7576 54.24V48.9349C31.7576 48.7334 31.6815 48.5401 31.5462 48.3975C31.4109 48.255 31.2274 48.1749 31.0361 48.1749Z" fill="white"/>
</g>
<defs>
<filter id="filter0_d_248_296" x="0" y="0" width="62" height="80" filterUnits="userSpaceOnUse" color-interpolation-filters="sRGB">
<feFlood flood-opacity="0" result="BackgroundImageFix"/>
<feColorMatrix in="SourceAlpha" type="matrix" values="0 0 0 0 0 0 0 0 0 0 0 0 0 0 0 0 0 0 127 0" result="hardAlpha"/>
<feOffset dy="10"/>
<feGaussianBlur stdDeviation="7.5"/>
<feComposite in2="hardAlpha" operator="out"/>
<feColorMatrix type="matrix" values="0 0 0 0 0 0 0 0 0 0 0 0 0 0 0 0 0 0 0.25 0"/>
<feBlend mode="normal" in2="BackgroundImageFix" result="effect1_dropShadow_248_296"/>
<feBlend mode="normal" in="SourceGraphic" in2="effect1_dropShadow_248_296" result="shape"/>
</filter>
<clipPath id="clip0_248_296">
<rect width="32" height="50" fill="white" transform="translate(15 5)"/>
</clipPath>
</defs>
</svg>
