<svg width="78" height="80" viewBox="0 0 78 80" fill="none" xmlns="http://www.w3.org/2000/svg">
<g clip-path="url(#clip0_248_314)" filter="url(#filter0_d_248_314)">
<path d="M58.7312 -91.1306C58.2992 -91.1306 57.95 -91.4806 57.95 -91.9118V-95.6985H22.0476V-91.9118C22.0476 -91.4806 21.6984 -91.1306 21.2664 -91.1306C20.8343 -91.1306 20.4851 -91.4806 20.4851 -91.9118V-105.487C20.4851 -107.784 22.3531 -109.653 24.6484 -109.653H55.3452C57.6421 -109.653 59.5117 -107.784 59.5117 -105.487V-91.9118C59.5125 -91.4806 59.1624 -91.1306 58.7312 -91.1306ZM22.0476 -97.261H57.9492V-105.487C57.9492 -106.923 56.7812 -108.091 55.3452 -108.091H24.6492C23.2148 -108.091 22.0484 -106.923 22.0484 -105.487V-97.261H22.0476ZM61.8741 -109.807H18.1257C17.6937 -109.807 17.3445 -110.157 17.3445 -110.588C17.3445 -111.02 17.6937 -111.37 18.1257 -111.37H61.8741C62.3062 -111.37 62.6554 -111.02 62.6554 -110.588C62.6554 -110.157 62.3062 -109.807 61.8741 -109.807ZM-267.445 -20.9204C-267.877 -20.9204 -268.227 -21.2704 -268.227 -21.7017V-28.9384H-277.162V-21.7017C-277.162 -21.2704 -277.512 -20.9204 -277.943 -20.9204C-278.374 -20.9204 -278.724 -21.2704 -278.724 -21.7017V-33.1438H-280.174C-280.605 -33.1438 -280.955 -33.4938 -280.955 -33.9251C-280.955 -34.3563 -280.605 -34.7063 -280.174 -34.7063H-268.145L-267.031 -44.7267V-49.5485C-267.031 -49.9798 -266.681 -50.3298 -266.25 -50.3298C-265.819 -50.3298 -265.469 -49.9798 -265.469 -49.5485V-44.6946C-265.469 -44.6759 -265.469 -44.6571 -265.47 -44.6384C-265.47 -44.6212 -265.472 -44.6032 -265.474 -44.586L-266.663 -33.8821V-21.7017C-266.664 -21.2696 -267.014 -20.9204 -267.445 -20.9204ZM-277.162 -30.5001H-268.227V-33.1438H-277.162V-30.5001ZM-288.126 -20.9204C-288.149 -20.9204 -288.173 -20.9212 -288.195 -20.9235H-293.373C-293.804 -20.9235 -294.154 -21.2735 -294.154 -21.7048C-294.154 -22.136 -293.804 -22.486 -293.373 -22.486H-288.907V-40.3212H-301.586C-302.017 -40.3212 -302.367 -40.6712 -302.367 -41.1024C-302.367 -41.5337 -302.017 -41.8837 -301.586 -41.8837H-274.662C-274.23 -41.8837 -273.88 -41.5337 -273.88 -41.1024C-273.88 -40.6712 -274.23 -40.3212 -274.662 -40.3212H-287.345V-22.486H-282.877C-282.445 -22.486 -282.095 -22.136 -282.095 -21.7048C-282.095 -21.2735 -282.445 -20.9235 -282.877 -20.9235H-288.056C-288.079 -20.9212 -288.102 -20.9204 -288.126 -20.9204ZM-298.309 -20.9204C-298.74 -20.9204 -299.09 -21.2704 -299.09 -21.7017V-28.9384H-308.023V-21.7017C-308.023 -21.2704 -308.373 -20.9204 -308.805 -20.9204C-309.236 -20.9204 -309.586 -21.2704 -309.586 -21.7017V-33.8821L-310.775 -44.586C-310.777 -44.604 -310.779 -44.6227 -310.78 -44.6415C-310.781 -44.6587 -310.781 -44.6767 -310.781 -44.6946V-49.5485C-310.781 -49.9798 -310.431 -50.3298 -310 -50.3298C-309.569 -50.3298 -309.219 -49.9798 -309.219 -49.5485V-44.7267L-308.105 -34.7063H-296.077C-295.646 -34.7063 -295.296 -34.3563 -295.296 -33.9251C-295.296 -33.4938 -295.646 -33.1438 -296.077 -33.1438H-297.527V-21.7017C-297.527 -21.2696 -297.877 -20.9204 -298.309 -20.9204ZM-308.023 -30.5001H-299.09V-33.1438H-308.023V-30.5001ZM-203.766 -24.529C-204.198 -24.529 -204.548 -24.879 -204.548 -25.3102V-27.4602H-222.501C-222.933 -27.4602 -223.282 -27.8095 -223.282 -28.2415V-43.2048H-240.453V-25.3102C-240.453 -24.879 -240.803 -24.529 -241.234 -24.529C-241.666 -24.529 -242.016 -24.879 -242.016 -25.3102V-43.2048H-244.375C-244.806 -43.2048 -245.156 -43.5548 -245.156 -43.986V-45.9399C-245.156 -46.3712 -244.806 -46.7212 -244.375 -46.7212H-200.625C-200.194 -46.7212 -199.844 -46.3712 -199.844 -45.9399V-43.986C-199.844 -43.5548 -200.194 -43.2048 -200.625 -43.2048H-202.985V-25.3102C-202.985 -24.879 -203.334 -24.529 -203.766 -24.529ZM-221.72 -29.0227H-204.548V-35.3313H-221.72V-29.0227ZM-221.72 -36.8938H-204.548V-43.2048H-221.72V-36.8938ZM-203.766 -44.7673H-201.406V-45.1587H-243.594V-44.7673H-203.766ZM-212.11 -31.3954H-214.151C-214.583 -31.3954 -214.932 -31.7454 -214.932 -32.1767C-214.932 -32.6087 -214.583 -32.9579 -214.151 -32.9579H-212.11C-211.679 -32.9579 -211.329 -32.6087 -211.329 -32.1767C-211.329 -31.7454 -211.679 -31.3954 -212.11 -31.3954ZM-212.11 -39.2696H-214.151C-214.583 -39.2696 -214.932 -39.6196 -214.932 -40.0509C-214.932 -40.4829 -214.583 -40.8321 -214.151 -40.8321H-212.11C-211.679 -40.8321 -211.329 -40.4829 -211.329 -40.0509C-211.329 -39.6196 -211.679 -39.2696 -212.11 -39.2696ZM-138.141 -24.529C-138.573 -24.529 -138.923 -24.879 -138.923 -25.3102V-35.3313H-174.828V-25.3102C-174.828 -24.879 -175.178 -24.529 -175.609 -24.529C-176.041 -24.529 -176.391 -24.879 -176.391 -25.3102V-43.2048H-178.75C-179.181 -43.2048 -179.531 -43.5548 -179.531 -43.986V-45.9399C-179.531 -46.3712 -179.181 -46.7212 -178.75 -46.7212H-135C-134.569 -46.7212 -134.219 -46.3712 -134.219 -45.9399V-43.986C-134.219 -43.5548 -134.569 -43.2048 -135 -43.2048H-137.36V-25.3102C-137.36 -24.879 -137.709 -24.529 -138.141 -24.529ZM-156.095 -36.8938H-138.923V-43.2048H-156.095V-36.8938ZM-174.827 -36.8938H-157.656V-43.2048H-174.827V-36.8938ZM-138.141 -44.7673H-135.781V-45.1587H-177.969V-44.7673H-138.141ZM-146.485 -39.2696H-148.526C-148.957 -39.2696 -149.307 -39.6196 -149.307 -40.0509C-149.307 -40.4821 -148.957 -40.8321 -148.526 -40.8321H-146.485C-146.054 -40.8321 -145.704 -40.4821 -145.704 -40.0509C-145.704 -39.6196 -146.054 -39.2696 -146.485 -39.2696ZM-165.221 -39.3899H-167.263C-167.695 -39.3899 -168.045 -39.7399 -168.045 -40.1712C-168.045 -40.6024 -167.695 -40.9524 -167.263 -40.9524H-165.221C-164.79 -40.9524 -164.44 -40.6024 -164.44 -40.1712C-164.44 -39.7399 -164.789 -39.3899 -165.221 -39.3899ZM-82.2422 -12.9688C-82.6743 -12.9688 -83.0235 -13.3188 -83.0235 -13.7501V-16.1102H-99.479V-13.7501C-99.479 -13.3188 -99.8282 -12.9688 -100.26 -12.9688C-100.692 -12.9688 -101.041 -13.3188 -101.041 -13.7501V-28.5009H-103.891C-104.323 -28.5009 -104.672 -28.8509 -104.672 -29.2821C-104.634 -30.7845 -103.446 -31.9423 -101.964 -31.9423H-100.844L-100.838 -49.0431C-100.632 -54.2368 -96.4211 -58.2813 -91.2516 -58.2813C-86.0789 -58.2813 -81.868 -54.2368 -81.6649 -49.0735L-81.6555 -31.9423H-80.5344C-79.0766 -31.9423 -77.8618 -30.7587 -77.8266 -29.3048C-77.8266 -29.2985 -77.8266 -29.2923 -77.8266 -29.286V-29.2821C-77.8266 -28.8509 -78.1758 -28.5009 -78.6078 -28.5009H-81.4594V-13.7501C-81.461 -13.3188 -81.8102 -12.9688 -82.2422 -12.9688ZM-99.479 -17.6727H-83.0235V-22.3063H-99.479V-17.6727ZM-99.479 -23.8681H-83.0235V-28.5009H-99.479V-23.8681ZM-82.2422 -30.0634H-79.7477C-79.9539 -30.2587 -80.2321 -30.3798 -80.536 -30.3798H-101.966C-102.269 -30.3798 -102.547 -30.2587 -102.754 -30.0634H-82.2422ZM-99.2821 -31.9423H-83.218L-83.2266 -49.0423C-83.3961 -53.3337 -86.9211 -56.7188 -91.2508 -56.7188C-95.5782 -56.7188 -99.1039 -53.3337 -99.2758 -49.0118L-99.2821 -31.9423ZM-90.2688 -19.2056H-92.2305C-92.6625 -19.2056 -93.0117 -19.5556 -93.0117 -19.9868C-93.0117 -20.4181 -92.6625 -20.7681 -92.2305 -20.7681H-90.2688C-89.8368 -20.7681 -89.4875 -20.4181 -89.4875 -19.9868C-89.4875 -19.5556 -89.8368 -19.2056 -90.2688 -19.2056ZM-90.2688 -25.4048H-92.2305C-92.6625 -25.4048 -93.0117 -25.7548 -93.0117 -26.186C-93.0117 -26.6173 -92.6625 -26.9673 -92.2305 -26.9673H-90.2688C-89.8368 -26.9673 -89.4875 -26.6173 -89.4875 -26.186C-89.4875 -25.7548 -89.8368 -25.4048 -90.2688 -25.4048ZM-95.6797 -39.1188C-95.8797 -39.1188 -96.0797 -39.1954 -96.2321 -39.3477C-96.5375 -39.6532 -96.5375 -40.147 -96.2321 -40.4524L-87.3719 -49.3126C-87.0665 -49.6181 -86.5727 -49.6181 -86.2672 -49.3126C-85.9618 -49.0071 -85.9618 -48.5134 -86.2672 -48.2079L-95.1274 -39.3477C-95.2797 -39.1946 -95.4797 -39.1188 -95.6797 -39.1188ZM-91.8203 -39.6657C-92.0203 -39.6657 -92.2204 -39.7423 -92.3727 -39.8946C-92.6782 -40.2001 -92.6782 -40.6946 -92.3727 -41.0001L-87.9188 -45.4517C-87.6133 -45.7563 -87.1196 -45.7563 -86.8141 -45.4517C-86.5087 -45.147 -86.5087 -44.6516 -86.8141 -44.3462L-91.268 -39.8946C-91.4211 -39.7423 -91.6211 -39.6657 -91.8203 -39.6657ZM-95.1328 -42.9798C-95.3328 -42.9798 -95.5329 -43.0563 -95.6852 -43.2087C-95.9907 -43.5134 -95.9907 -44.0079 -95.6852 -44.3134L-91.2352 -48.7649C-90.9297 -49.0704 -90.436 -49.0704 -90.1305 -48.7649C-89.825 -48.4602 -89.825 -47.9657 -90.1305 -47.6602L-94.5805 -43.2087C-94.7328 -43.0563 -94.9328 -42.9798 -95.1328 -42.9798ZM-36.3696 -12.9688C-36.4727 -12.9688 -36.5782 -12.9892 -36.6789 -13.0329C-37.075 -13.2048 -37.2563 -13.6649 -37.086 -14.0602L-36.5219 -15.3626H-37.7633C-38.1953 -15.3626 -38.5446 -15.7126 -38.5446 -16.1438V-32.8423C-38.5446 -33.2977 -38.1352 -33.6556 -37.6938 -33.6204H-31.1438V-42.8024H-37.7633C-37.9922 -42.8024 -38.2086 -42.9024 -38.3578 -43.0766C-38.5055 -43.2509 -38.5703 -43.4806 -38.5352 -43.7063L-36.3336 -57.6227C-36.2735 -58.0024 -35.9461 -58.2813 -35.5618 -58.2813H-25.1719C-24.7875 -58.2813 -24.461 -58.0024 -24.4008 -57.6227L-22.1946 -43.7063C-22.1586 -43.4806 -22.2235 -43.2501 -22.3719 -43.0759C-22.5204 -42.9017 -22.7375 -42.8017 -22.9664 -42.8017H-24.7102V-39.0868C-24.7102 -38.6556 -25.0594 -38.3056 -25.4915 -38.3056C-25.9235 -38.3056 -26.2727 -38.6556 -26.2727 -39.0868V-42.8017H-29.5821V-33.6196H-13.5563C-13.1141 -33.6548 -12.7055 -33.297 -12.7055 -32.8415V-16.1431C-12.7055 -15.7118 -13.0547 -15.3618 -13.4868 -15.3618H-14.6961L-14.1313 -14.0602C-13.9586 -13.6642 -14.1414 -13.204 -14.5368 -13.0329C-14.9337 -12.8618 -15.3938 -13.0431 -15.5641 -13.4391L-16.3993 -15.3626H-34.8188L-35.6508 -13.4399C-35.779 -13.1454 -36.0672 -12.9688 -36.3696 -12.9688ZM-15.8696 -16.9251H-14.268V-23.7102H-36.9821V-16.9251H-35.35C-35.3376 -16.9259 -35.3266 -16.9259 -35.3141 -16.9251H-15.9047C-15.893 -16.9259 -15.8805 -16.9259 -15.8696 -16.9251ZM-36.9821 -25.2727H-14.268V-32.0587H-36.9821V-25.2727ZM-25.4907 -44.3657H-23.8797L-25.8383 -56.7188H-34.8938L-36.8485 -44.3649H-25.4907V-44.3657ZM-24.304 -19.5329H-26.95C-27.382 -19.5329 -27.7313 -19.8829 -27.7313 -20.3141C-27.7313 -20.7462 -27.382 -21.0954 -26.95 -21.0954H-24.304C-23.8719 -21.0954 -23.5227 -20.7462 -23.5227 -20.3141C-23.5227 -19.8837 -23.8719 -19.5329 -24.304 -19.5329ZM-24.304 -27.8876H-26.95C-27.382 -27.8876 -27.7313 -28.2376 -27.7313 -28.6688C-27.7313 -29.1009 -27.382 -29.4501 -26.95 -29.4501H-24.304C-23.8719 -29.4501 -23.5227 -29.1009 -23.5227 -28.6688C-23.5227 -28.2376 -23.8719 -27.8876 -24.304 -27.8876ZM60.6484 -26.2423C60.346 -26.2423 60.0585 -26.4188 59.9312 -26.7134L59.1999 -28.3985H40.0015C40 -28.3985 39.9999 -28.3985 39.9984 -28.3985H20.8297L20.1015 -26.7134C19.9304 -26.3188 19.4718 -26.1352 19.075 -26.3063C18.6789 -26.4774 18.4968 -26.9376 18.6679 -27.3337L19.1281 -28.3977H18.1257C17.6937 -28.3977 17.3445 -28.7477 17.3445 -29.179V-44.2243C17.3445 -44.6728 17.7468 -45.0306 18.175 -45.004H39.95C39.9664 -45.0056 39.9851 -45.0102 39.9999 -45.0056C40.0195 -45.0102 40.0335 -45.0056 40.05 -45.004H61.825C62.2499 -45.0306 62.6554 -44.6728 62.6554 -44.2243V-29.179C62.6554 -28.7477 62.3062 -28.3977 61.8741 -28.3977H60.9031L61.364 -27.3345C61.5359 -26.9384 61.3539 -26.4782 60.9577 -26.3071C60.857 -26.2634 60.7515 -26.2423 60.6484 -26.2423ZM59.7296 -29.9602H61.0929V-35.9212H40.7828V-29.9602H59.6953C59.7062 -29.961 59.7187 -29.961 59.7296 -29.9602ZM20.3335 -29.9602H39.2171V-35.9212H18.907V-29.9602H20.2992C20.3093 -29.961 20.3218 -29.961 20.3335 -29.9602ZM40.7828 -37.4837H61.0929V-43.4415H40.7828V-37.4837ZM18.907 -37.4837H39.2171V-43.4415H18.907V-37.4837ZM52.1296 -32.1587H49.7453C49.3132 -32.1587 48.964 -32.5087 48.964 -32.9399C48.964 -33.3712 49.3132 -33.7212 49.7453 -33.7212H52.1296C52.5617 -33.7212 52.9109 -33.3712 52.9109 -32.9399C52.9109 -32.5087 52.5617 -32.1587 52.1296 -32.1587ZM30.2507 -32.1587H27.8671C27.4351 -32.1587 27.0859 -32.5087 27.0859 -32.9399C27.0859 -33.3712 27.4351 -33.7212 27.8671 -33.7212H30.2515C30.6835 -33.7212 31.0328 -33.3712 31.0328 -32.9399C31.0328 -32.5087 30.6828 -32.1587 30.2507 -32.1587ZM52.1296 -39.6821H49.7453C49.3132 -39.6821 48.964 -40.0321 48.964 -40.4634C48.964 -40.8946 49.3132 -41.2446 49.7453 -41.2446H52.1296C52.5617 -41.2446 52.9109 -40.8946 52.9109 -40.4634C52.9109 -40.0321 52.5617 -39.6821 52.1296 -39.6821ZM30.2507 -39.6821H27.8671C27.4351 -39.6821 27.0859 -40.0321 27.0859 -40.4634C27.0859 -40.8946 27.4351 -41.2446 27.8671 -41.2446H30.2515C30.6835 -41.2446 31.0328 -40.8946 31.0328 -40.4634C31.0328 -40.0321 30.6828 -39.6821 30.2507 -39.6821ZM-308.741 39.3804C-308.845 39.3804 -308.951 39.3601 -309.052 39.3163C-309.448 39.1445 -309.63 38.6843 -309.458 38.289L-308.998 37.2257H-310C-310.431 37.2257 -310.781 36.8765 -310.781 36.4444V21.3999C-310.781 20.9679 -310.431 20.6187 -310 20.6187H-288.126C-288.123 20.6187 -288.123 20.6187 -288.123 20.6187H-266.25C-265.819 20.6187 -265.469 20.9679 -265.469 21.3999V36.4437C-265.469 36.8757 -265.819 37.2249 -266.25 37.2249H-267.221L-266.76 38.2874C-266.588 38.6835 -266.77 39.1437 -267.166 39.3148C-267.561 39.4882 -268.022 39.3054 -268.194 38.9093L-268.925 37.2241H-288.123C-288.123 37.2234 -288.123 37.2234 -288.126 37.2241H-307.295L-308.024 38.9085C-308.152 39.2038 -308.439 39.3804 -308.741 39.3804ZM-268.395 35.6624H-267.031V22.1812H-287.341V35.6624H-268.43C-268.418 35.6624 -268.406 35.6624 -268.395 35.6624ZM-307.79 35.6624H-288.907V29.703H-309.219V35.6624H-307.825C-307.813 35.6624 -307.802 35.6624 -307.79 35.6624ZM-309.219 28.1405H-288.907V22.1812H-309.219V28.1405ZM-297.871 33.4648H-300.255C-300.687 33.4648 -301.037 33.1155 -301.037 32.6835C-301.037 32.2515 -300.687 31.9023 -300.255 31.9023H-297.871C-297.44 31.9023 -297.09 32.2515 -297.09 32.6835C-297.09 33.1155 -297.44 33.4648 -297.871 33.4648ZM-285.691 30.8929C-286.122 30.8929 -286.472 30.5437 -286.472 30.1116V27.7265C-286.472 27.2944 -286.122 26.9452 -285.691 26.9452C-285.259 26.9452 -284.909 27.2944 -284.909 27.7265V30.1116C-284.909 30.5429 -285.259 30.8929 -285.691 30.8929ZM-297.871 25.939H-300.255C-300.687 25.939 -301.037 25.5898 -301.037 25.1577C-301.037 24.7257 -300.687 24.3765 -300.255 24.3765H-297.871C-297.44 24.3765 -297.09 24.7257 -297.09 25.1577C-297.09 25.5898 -297.44 25.939 -297.871 25.939ZM-202.787 42.5913C-203.218 42.5913 -203.568 42.2421 -203.568 41.8101V41.5366H-222.497C-222.498 41.5366 -222.498 41.5366 -222.5 41.5366H-241.401V41.8101C-241.401 42.2421 -241.751 42.5913 -242.182 42.5913C-242.613 42.5913 -242.963 42.2421 -242.963 41.8101V41.5366H-244.305C-244.752 41.5858 -245.155 41.214 -245.155 40.7585V18.1898C-245.155 17.7577 -244.805 17.4085 -244.374 17.4085H-200.624C-200.193 17.4085 -199.843 17.7577 -199.843 18.1898C-199.843 18.2132 -199.844 18.2366 -199.846 18.2593V25.6429C-199.845 25.6655 -199.843 25.689 -199.843 25.7124V40.7562C-199.843 41.1882 -200.193 41.5374 -200.624 41.5374H-202.005V41.8109C-202.005 42.2421 -202.355 42.5913 -202.787 42.5913ZM-221.716 39.9749H-201.406V34.0148H-221.716V39.9749ZM-243.594 39.9749H-223.282V34.0148H-243.594V39.9749ZM-221.716 32.4523H-201.406V25.782C-201.408 25.7593 -201.409 25.7358 -201.409 25.7124V18.971H-221.716V32.4523ZM-243.594 32.4523H-223.279V18.971H-243.594V32.4523ZM-210.369 37.7788H-212.753C-213.184 37.7788 -213.534 37.4296 -213.534 36.9976C-213.534 36.5655 -213.184 36.2163 -212.753 36.2163H-210.369C-209.938 36.2163 -209.588 36.5655 -209.588 36.9976C-209.588 37.4296 -209.938 37.7788 -210.369 37.7788ZM-232.246 37.7788H-234.63C-235.062 37.7788 -235.412 37.4296 -235.412 36.9976C-235.412 36.5655 -235.062 36.2163 -234.63 36.2163H-232.246C-231.815 36.2163 -231.465 36.5655 -231.465 36.9976C-231.465 37.4296 -231.815 37.7788 -232.246 37.7788ZM-202.939 27.6819C-203.37 27.6819 -203.72 27.3327 -203.72 26.9007V24.5187C-203.72 24.0866 -203.37 23.7374 -202.939 23.7374C-202.508 23.7374 -202.158 24.0866 -202.158 24.5187V26.9007C-202.158 27.3327 -202.508 27.6819 -202.939 27.6819ZM-242.075 27.6819C-242.506 27.6819 -242.856 27.3327 -242.856 26.9007V24.5187C-242.856 24.0866 -242.506 23.7374 -242.075 23.7374C-241.644 23.7374 -241.294 24.0866 -241.294 24.5187V26.9007C-241.294 27.3327 -241.643 27.6819 -242.075 27.6819ZM-137.162 46.6194C-137.593 46.6194 -137.943 46.2702 -137.943 45.8382V45.5609H-156.872C-156.873 45.5609 -156.873 45.5609 -156.875 45.5609H-175.776V45.8382C-175.776 46.2702 -176.126 46.6194 -176.557 46.6194C-176.988 46.6194 -177.338 46.2702 -177.338 45.8382V45.5609H-178.68C-179.125 45.6116 -179.53 45.2382 -179.53 44.7827V37.2577C-179.53 36.8257 -179.18 36.4765 -178.749 36.4765H-175.556V34.4726H-178.75C-179.181 34.4726 -179.531 34.1234 -179.531 33.6913C-179.531 33.2593 -179.181 32.9101 -178.75 32.9101H-160.047L-159.52 31.2007H-170.901C-171.332 31.2007 -171.682 30.8515 -171.682 30.4194V14.1616C-171.682 13.7296 -171.332 13.3804 -170.901 13.3804H-142.849C-142.418 13.3804 -142.068 13.7296 -142.068 14.1616V30.4202C-142.068 30.8522 -142.418 31.2015 -142.849 31.2015H-154.231L-153.705 32.9109H-135C-134.569 32.9109 -134.219 33.2601 -134.219 33.6921C-134.219 34.1241 -134.569 34.4734 -135 34.4734H-138.192V36.4773H-135C-134.569 36.4773 -134.219 36.8265 -134.219 37.2585V44.7804C-134.219 45.2124 -134.569 45.5616 -135 45.5616H-136.38V45.839C-136.38 46.2702 -136.73 46.6194 -137.162 46.6194ZM-156.095 43.9984H-135.781V38.039H-156.095V43.9984ZM-177.969 43.9984H-157.657V38.039H-177.969V43.9984ZM-173.995 36.4765H-139.755V34.4726H-154.263C-154.274 34.4734 -154.286 34.4734 -154.299 34.4726H-159.451C-159.463 34.4734 -159.475 34.4734 -159.487 34.4726H-173.994V36.4765H-173.995ZM-158.412 32.9101H-155.34L-155.866 31.2007H-157.885L-158.412 32.9101ZM-155.271 29.6382H-143.63V14.9429H-170.12V29.639H-158.48C-158.467 29.6398 -158.455 29.6398 -158.445 29.639H-155.307C-155.295 29.639 -155.283 29.639 -155.271 29.6382ZM-144.744 41.803H-147.128C-147.559 41.803 -147.909 41.4538 -147.909 41.0218C-147.909 40.5898 -147.559 40.2405 -147.128 40.2405H-144.744C-144.313 40.2405 -143.963 40.5898 -143.963 41.0218C-143.963 41.4538 -144.313 41.803 -144.744 41.803ZM-166.621 41.803H-169.005C-169.437 41.803 -169.787 41.4538 -169.787 41.0218C-169.787 40.5898 -169.437 40.2405 -169.005 40.2405H-166.621C-166.19 40.2405 -165.84 40.5898 -165.84 41.0218C-165.84 41.4538 -166.19 41.803 -166.621 41.803ZM-83.9579 40.4147C-84.3899 40.4147 -84.7391 40.0655 -84.7391 39.6335V38.0374H-97.7649V39.6335C-97.7649 40.0655 -98.1141 40.4147 -98.5461 40.4147C-98.9781 40.4147 -99.3274 40.0655 -99.3274 39.6335V38.0374H-112.343V39.6148C-112.343 40.0468 -112.692 40.396 -113.124 40.396C-113.556 40.396 -113.905 40.0468 -113.905 39.6148V20.3663C-113.905 19.9343 -113.556 19.5851 -113.124 19.5851H-69.3758C-68.9438 19.5851 -68.5946 19.9343 -68.5946 20.3663V39.6116C-68.5946 40.0437 -68.9438 40.3929 -69.3758 40.3929C-69.8079 40.3929 -70.1571 40.0437 -70.1571 39.6116V38.0374H-83.1766V39.6335C-83.1766 40.0655 -83.5258 40.4147 -83.9579 40.4147ZM-83.1766 36.4749H-70.1571V25.8874H-83.1766V36.4749ZM-97.7649 36.4749H-84.7391V23.5444H-97.7649V36.4749ZM-112.343 36.4749H-99.3274V25.8874H-112.343V36.4749ZM-83.1766 24.3249H-70.1571V21.1476H-83.1766V24.3249ZM-112.343 24.3249H-99.3274V21.1476H-112.343V24.3249ZM-97.7649 21.9819H-84.7391V21.1476H-97.7649V21.9819ZM-82.2094 32.7319C-82.6414 32.7319 -82.9907 32.3827 -82.9907 31.9507V30.4116C-82.9907 29.9796 -82.6414 29.6304 -82.2094 29.6304C-81.7774 29.6304 -81.4282 29.9796 -81.4282 30.4116V31.9507C-81.4282 32.3827 -81.7774 32.7319 -82.2094 32.7319ZM-100.294 32.7319C-100.726 32.7319 -101.075 32.3827 -101.075 31.9507V30.4116C-101.075 29.9796 -100.726 29.6304 -100.294 29.6304C-99.8617 29.6304 -99.5125 29.9796 -99.5125 30.4116V31.9507C-99.5125 32.3827 -99.8617 32.7319 -100.294 32.7319ZM-75.8703 23.3437H-77.4594C-77.8914 23.3437 -78.2407 22.9944 -78.2407 22.5624C-78.2407 22.1304 -77.8914 21.7812 -77.4594 21.7812H-75.8703C-75.4383 21.7812 -75.0891 22.1304 -75.0891 22.5624C-75.0891 22.9944 -75.4391 23.3437 -75.8703 23.3437ZM-105.04 23.3437H-106.626C-107.058 23.3437 -107.407 22.9944 -107.407 22.5624C-107.407 22.1304 -107.058 21.7812 -106.626 21.7812H-105.04C-104.608 21.7812 -104.259 22.1304 -104.259 22.5624C-104.259 22.9944 -104.609 23.3437 -105.04 23.3437ZM-15.0258 52.6554H-36.2281C-36.6602 52.6554 -37.0094 52.3062 -37.0094 51.8741V22.7085C-37.0094 22.7069 -37.0094 22.7069 -37.0094 22.7054V8.1257C-37.0094 7.69367 -36.6602 7.34445 -36.2281 7.34445H-15.0227C-14.5907 7.34445 -14.2415 7.69367 -14.2415 8.1257C-14.2415 8.14914 -14.2422 8.17257 -14.2446 8.19522V22.6421C-14.2422 22.6648 -14.2415 22.6882 -14.2415 22.7116C-14.2415 22.7351 -14.2422 22.7585 -14.2446 22.7812V37.2249C-14.2422 37.2476 -14.2415 37.271 -14.2415 37.2944C-14.2415 37.3179 -14.2422 37.3413 -14.2446 37.364V51.8741C-14.2446 52.3062 -14.5938 52.6554 -15.0258 52.6554ZM-35.4461 51.0929H-15.8063V38.0757H-35.4461V51.0929ZM-35.4461 36.5101H-15.8063V23.4929H-35.4461V36.5101ZM-35.4461 21.9241H-15.8063V8.90695H-35.4461V21.9241ZM-33.9993 46.5226C-34.4313 46.5226 -34.7805 46.1734 -34.7805 45.7413V43.4304C-34.7805 42.9984 -34.4313 42.6491 -33.9993 42.6491C-33.5672 42.6491 -33.218 42.9984 -33.218 43.4304V45.7413C-33.218 46.1734 -33.5672 46.5226 -33.9993 46.5226ZM-33.9993 31.9366C-34.4313 31.9366 -34.7805 31.5874 -34.7805 31.1554V28.8476C-34.7805 28.4155 -34.4313 28.0663 -33.9993 28.0663C-33.5672 28.0663 -33.218 28.4155 -33.218 28.8476V31.1554C-33.218 31.5874 -33.5672 31.9366 -33.9993 31.9366ZM-33.9993 17.3515C-34.4313 17.3515 -34.7805 17.0023 -34.7805 16.5702V14.2624C-34.7805 13.8304 -34.4313 13.4812 -33.9993 13.4812C-33.5672 13.4812 -33.218 13.8304 -33.218 14.2624V16.5702C-33.218 17.0015 -33.5672 17.3515 -33.9993 17.3515ZM61.2039 52.6554H40.0015C40 52.6554 39.9999 52.6554 39.9984 52.6554H18.7961C18.364 52.6554 18.0148 52.3062 18.0148 51.8741V8.1257C18.0148 7.69367 18.364 7.34445 18.7961 7.34445H61.2031C61.6351 7.34445 61.9843 7.69367 61.9843 8.1257V22.7054C61.9843 22.7069 61.9843 22.7069 61.9843 22.7085V51.8741C61.9851 52.3062 61.6351 52.6554 61.2039 52.6554ZM40.7828 51.0929H60.4226V22.7085C60.4226 22.7069 60.4226 22.7069 60.4226 22.7054V8.90695H40.7828V22.7054C40.7828 22.7069 40.7828 22.7069 40.7828 22.7085V51.0929ZM19.5773 51.0929H39.2171V38.0726H19.5773V51.0929ZM19.5773 36.5101H39.2171V22.7085C39.2171 22.7069 39.2171 22.7069 39.2171 22.7054V8.90695H19.5773V36.5101ZM37.5312 46.5226C37.0992 46.5226 36.7499 46.1734 36.7499 45.7413V43.4304C36.7499 42.9984 37.0992 42.6491 37.5312 42.6491C37.9632 42.6491 38.3124 42.9984 38.3124 43.4304V45.7413C38.3124 46.1734 37.9632 46.5226 37.5312 46.5226ZM42.4687 31.9366C42.0367 31.9366 41.6874 31.5874 41.6874 31.1554V28.8476C41.6874 28.4155 42.0367 28.0663 42.4687 28.0663C42.9007 28.0663 43.2499 28.4155 43.2499 28.8476V31.1554C43.2499 31.5874 42.9007 31.9366 42.4687 31.9366ZM37.5312 31.9366C37.0992 31.9366 36.7499 31.5874 36.7499 31.1554V28.8476C36.7499 28.4155 37.0992 28.0663 37.5312 28.0663C37.9632 28.0663 38.3124 28.4155 38.3124 28.8476V31.1554C38.3124 31.5874 37.9632 31.9366 37.5312 31.9366ZM-266.92 118.28H-288.123C-288.124 118.28 -288.124 118.28 -288.126 118.28H-309.33C-309.761 118.28 -310.111 117.931 -310.111 117.499V73.7507C-310.111 73.3187 -309.761 72.9695 -309.33 72.9695H-266.921C-266.49 72.9695 -266.14 73.3187 -266.14 73.7507V88.3304C-266.14 88.3319 -266.14 88.3319 -266.14 88.3335V117.499C-266.139 117.931 -266.49 118.28 -266.92 118.28ZM-287.341 116.718H-267.702V88.3335C-267.702 88.3319 -267.702 88.3319 -267.702 88.3304V74.532H-287.341V88.3304C-287.341 88.3319 -287.341 88.3319 -287.341 88.3335V116.718ZM-308.548 116.718H-288.907V88.3335C-288.907 88.3319 -288.907 88.3319 -288.907 88.3304V74.532H-308.548V116.718ZM-277.523 110.934C-281.185 110.934 -284.164 107.955 -284.164 104.294V86.9577C-284.164 83.296 -281.185 80.3171 -277.523 80.3171C-273.861 80.3171 -270.88 83.296 -270.88 86.9577L-270.883 104.294C-270.883 107.955 -273.862 110.934 -277.523 110.934ZM-277.523 81.8788C-280.323 81.8788 -282.602 84.157 -282.602 86.957V104.293C-282.602 107.093 -280.323 109.37 -277.523 109.37C-274.723 109.37 -272.445 107.093 -272.445 104.293L-272.442 86.957C-272.442 84.157 -274.722 81.8788 -277.523 81.8788ZM-285.655 97.5616C-286.087 97.5616 -286.437 97.2124 -286.437 96.7804V94.4726C-286.437 94.0405 -286.087 93.6913 -285.655 93.6913C-285.224 93.6913 -284.874 94.0405 -284.874 94.4726V96.7804C-284.874 97.2124 -285.224 97.5616 -285.655 97.5616ZM-290.593 97.5616C-291.024 97.5616 -291.374 97.2124 -291.374 96.7804V94.4726C-291.374 94.0405 -291.024 93.6913 -290.593 93.6913C-290.161 93.6913 -289.812 94.0405 -289.812 94.4726V96.7804C-289.812 97.2124 -290.161 97.5616 -290.593 97.5616ZM-134.222 84.1718C-134.222 83.7398 -134.572 83.3905 -135.003 83.3905C-135.435 83.3905 -135.784 83.7398 -135.784 84.1718V92.721H-135.838C-135.912 91.0046 -137.32 89.6296 -139.055 89.6296H-142.635C-144.369 89.6296 -145.777 91.0046 -145.85 92.721H-174.63C-175.917 92.721 -177.091 93.2202 -177.966 94.0351V90.3577C-177.966 89.9257 -178.316 89.5765 -178.748 89.5765C-179.179 89.5765 -179.529 89.9257 -179.529 90.3577L-179.531 105.94C-179.531 106.358 -179.204 106.698 -178.792 106.721V107.078C-178.792 107.51 -178.443 107.859 -178.011 107.859C-177.58 107.859 -177.23 107.51 -177.23 107.078V106.721H-136.523V107.078C-136.523 107.51 -136.173 107.859 -135.741 107.859C-135.309 107.859 -134.96 107.51 -134.96 107.078V106.721C-134.548 106.7 -134.22 106.358 -134.22 105.94L-134.222 84.1718ZM-142.635 91.1921H-139.055C-138.184 91.1921 -137.467 91.8616 -137.393 92.7116H-144.295C-144.221 91.8624 -143.505 91.1921 -142.635 91.1921ZM-174.63 94.2835H-135.784V96.839H-177.877C-177.524 95.3749 -176.202 94.2835 -174.63 94.2835ZM-177.969 105.159V98.4023H-135.783L-135.781 105.159H-177.969ZM-68.5977 100.412C-68.5977 99.9796 -68.9477 99.6304 -69.379 99.6304H-86.5633V92.4116C-86.5633 91.9796 -86.9125 91.6304 -87.3446 91.6304H-95.1579C-95.5899 91.6304 -95.9391 91.9796 -95.9391 92.4116V99.6304H-99.518C-99.0782 98.246 -100.409 92.3945 -99.9953 91.2851C-99.9055 91.0452 -99.9391 90.7773 -100.085 90.5663C-100.231 90.3554 -100.47 90.2304 -100.727 90.2304H-101.78V87.5624H-97.6118C-97.3844 87.5624 -97.1688 87.4632 -97.0203 87.2913C-96.8719 87.1195 -96.8055 86.8913 -96.8391 86.6663L-98.3141 76.6944C-98.3703 76.3116 -98.6992 76.0273 -99.0868 76.0273H-106.036C-106.423 76.0273 -106.752 76.3109 -106.809 76.6944L-108.281 86.6663C-108.313 86.8913 -108.248 87.1195 -108.099 87.2913C-107.952 87.4632 -107.735 87.5624 -107.508 87.5624H-103.343V90.2304H-104.396C-104.652 90.2304 -104.892 90.3554 -105.038 90.5663C-105.184 90.7773 -105.217 91.0452 -105.127 91.2851C-104.713 92.3952 -106.042 98.246 -105.603 99.6304H-113.124C-113.556 99.6304 -113.905 99.9796 -113.905 100.412V113.301C-113.905 113.718 -113.579 114.059 -113.168 114.081V114.44C-113.168 114.872 -112.819 115.221 -112.387 115.221C-111.955 115.221 -111.605 114.872 -111.605 114.44V114.083H-70.8985V114.44C-70.8985 114.872 -70.5493 115.221 -70.1172 115.221C-69.6852 115.221 -69.336 114.872 -69.336 114.44V114.082C-69.1438 114.072 -68.961 113.991 -68.8242 113.854C-68.6774 113.707 -68.5954 113.509 -68.5954 113.301L-68.5977 100.412ZM-94.3766 93.1929H-88.1258V99.6304H-94.3766V93.1929ZM-106.602 86.0007L-105.361 77.5913H-99.761L-98.5172 86.0007H-106.602ZM-103.409 91.7937H-101.713C-101.866 93.0335 -100.595 98.614 -101.221 99.6304H-103.899C-104.525 98.6148 -103.255 93.0343 -103.409 91.7937ZM-92.0359 112.52H-112.343V101.193H-92.0359V112.52ZM-90.4734 112.52V101.193H-70.1602L-70.1571 112.52H-90.4734Z" fill="white"/>
</g>
<defs>
<filter id="filter0_d_248_314" x="0" y="0" width="80" height="80" filterUnits="userSpaceOnUse" color-interpolation-filters="sRGB">
<feFlood flood-opacity="0" result="BackgroundImageFix"/>
<feColorMatrix in="SourceAlpha" type="matrix" values="0 0 0 0 0 0 0 0 0 0 0 0 0 0 0 0 0 0 127 0" result="hardAlpha"/>
<feOffset dy="10"/>
<feGaussianBlur stdDeviation="7.5"/>
<feComposite in2="hardAlpha" operator="out"/>
<feColorMatrix type="matrix" values="0 0 0 0 0 0 0 0 0 0 0 0 0 0 0 0 0 0 0.25 0"/>
<feBlend mode="normal" in2="BackgroundImageFix" result="effect1_dropShadow_248_314"/>
<feBlend mode="normal" in="SourceGraphic" in2="effect1_dropShadow_248_314" result="shape"/>
</filter>
<clipPath id="clip0_248_314">
<rect width="50" height="50" fill="white" transform="translate(15 5)"/>
</clipPath>
</defs>
</svg>
